{"title":"Harrys Law S01E03 HDTV XviD-LOL","uid":6142782,"size":367131352,"categoryP":"video","categoryS":"tv_shows","magnet":"?xt=urn:btih:552a4c92c99b9dfb9781aea66b1b391e956d130c&amp;dn=Harrys+Law+S01E03+HDTV+XviD-LOL&amp;tr=udp%3A%2F%2Ftracker.openbittorrent.com%3A80&amp;tr=udp%3A%2F%2Fopen.demonii.com%3A1337&amp;tr=udp%3A%2F%2Ftracker.coppersurfer.tk%3A6969&amp;tr=udp%3A%2F%2Fexodus.desync.com%3A6969","seeders":0,"leechers":0,"uploader":"TheCloon","files":4,"time":1296560978,"description":"After getting a tip from a priest, Harry helps defend Jeffrey Rollins, an inmate serving life for a murder he did not commit. Meanwhile, legal woes continue to worsen for the laundromat after Adam risks disbarment by going behind Tommy\\'s back to offer the fired employee her job back. Elsewhere, Malcolm and Tommy form an unlikely partnership when they team up to help an overweight woman sue multiple fast food giants. \n\n[code]\nFormat                           : AVI\nFormat/Info                      : Audio Video Interleave\nFile size                        : 350 MiB\nDuration                         : 42mn 30s\nOverall bit rate                 : 1 152 Kbps\nWriting application              : transcode-1.0.6\n\nVideo\nID                               : 0\nFormat                           : MPEG-4 Visual\nFormat profile                   : Advanced Simple@L5\nFormat settings, BVOP            : 2\nFormat settings, QPel            : No\nFormat settings, GMC             : No warppoints\nFormat settings, Matrix          : Default (H.263)\nCodec ID                         : XVID\nCodec ID/Hint                    : XviD\nDuration                         : 42mn 30s\nBit rate                         : 1 015 Kbps\nWidth                            : 624 pixels\nHeight                           : 352 pixels\nDisplay aspect ratio             : 16:9\nFrame rate                       : 23.976 fps\nColor space                      : YUV\nChroma subsampling               : 4:2:0\nBit depth                        : 8 bits\nScan type                        : Progressive\nCompression mode                 : Lossy\nBits/(Pixel*Frame)               : 0.193\nStream size                      : 309 MiB (88%)\nWriting library                  : XviD 1.2.1 (UTC 2008-12-04)\n\nAudio\nID                               : 1\nFormat                           : MPEG Audio\nFormat version                   : Version 1\nFormat profile                   : Layer 3\nMode                             : Joint stereo\nMode extension                   : MS Stereo\nCodec ID                         : 55\nCodec ID/Hint                    : MP3\nDuration                         : 42mn 30s\nBit rate mode                    : Variable\nBit rate                         : 128 Kbps\nChannel(s)                       : 2 channels\nSampling rate                    : 48.0 KHz\nCompression mode                 : Lossy\nStream size                      : 37.7 MiB (11%)\nAlignment                        : Aligned on interleaves\nInterleave, duration             : 24 ms (0.58 video frame)\nWriting library                  : LAME3.98r\nEncoding settings                : -m j -V 4 -q 3 -lowpass 17 --abr 128\n[/code]","torrent":{"xt":"urn:btih:552a4c92c99b9dfb9781aea66b1b391e956d130c","amp;dn":"Harrys+Law+S01E03+HDTV+XviD-LOL","amp;tr":["udp%3A%2F%2Ftracker.openbittorrent.com%3A80","udp%3A%2F%2Fopen.demonii.com%3A1337","udp%3A%2F%2Ftracker.coppersurfer.tk%3A6969","udp%3A%2F%2Fexodus.desync.com%3A6969"],"infoHash":"552a4c92c99b9dfb9781aea66b1b391e956d130c","infoHashBuffer":{"type":"Buffer","data":[85,42,76,146,201,155,157,251,151,129,174,166,107,27,57,30,149,109,19,12]},"announce":[],"urlList":[]}}